<svg width="320" height="320" viewBox="0 0 320 320" fill="none" xmlns="http://www.w3.org/2000/svg">
<rect width="320" height="320" rx="50" fill="#FEFCFF"/>
<path d="M38.46 190.76H55.56C55.56 204.98 65.28 216.32 82.56 216.32C99.84 216.32 109.56 206.24 109.56 195.08C109.38 182.3 104.16 177.62 78.6 166.1C51.06 153.68 40.44 142.34 40.44 125.78C40.44 116.42 44.04 91.04 81.66 91.22C113.88 91.22 121.62 116.42 121.62 127.76H104.52C104.52 120.2 99.48 106.88 80.94 106.88C62.4 106.88 57.54 117.14 57.54 124.7C57.54 133.34 60.6 139.46 86.16 150.62C113.16 162.32 126.66 172.76 126.66 194.9C126.66 206.78 119.64 232.16 83.82 232.16C37.74 232.16 38.46 190.76 38.46 190.76ZM211.107 153.86H280.047C280.227 156.38 280.407 159.08 280.407 161.78C280.407 200.66 252.867 232.16 210.927 232.16C169.167 232.16 141.627 200.66 141.627 161.78C141.627 122.9 169.167 91.22 210.927 91.22C231.807 91.22 248.907 98.96 261.147 111.56L249.267 123.44C240.087 113.36 226.947 107.06 210.927 107.06C179.247 107.06 158.907 132.08 158.907 161.78C158.907 191.3 179.247 216.32 210.927 216.32C239.907 216.32 259.527 195.62 262.767 169.52H211.107V153.86Z" fill="url(#paint0_linear_82_1898)"/>
<defs>
<linearGradient id="paint0_linear_82_1898" x1="160" y1="71" x2="160" y2="249" gradientUnits="userSpaceOnUse">
<stop stop-color="#4D57B3"/>
<stop offset="1" stop-color="#44214D"/>
</linearGradient>
</defs>
</svg>
